<svg id="Calque_1" data-name="Calque 1" xmlns="http://www.w3.org/2000/svg" xmlns:xlink="http://www.w3.org/1999/xlink" viewBox="0 0 1920 2583.33"><defs><style>.cls-1{fill:#ececec;}.cls-2{opacity:0.3;}.cls-3{fill:url(#Dégradé_sans_nom_40);}.cls-4{fill:url(#Dégradé_sans_nom_40-2);}.cls-5{fill:url(#Dégradé_sans_nom_40-3);}</style><linearGradient id="Dégradé_sans_nom_40" x1="-483.15" y1="556.34" x2="854.77" y2="560.08" gradientTransform="translate(753.69 489.4) rotate(90)" gradientUnits="userSpaceOnUse"><stop offset="0" stop-color="#156084"/><stop offset="0.12" stop-color="#156084"/><stop offset="0.8" stop-color="#156084" stop-opacity="0.1"/><stop offset="0.98" stop-color="#156084"/></linearGradient><linearGradient id="Dégradé_sans_nom_40-2" x1="3021.44" y1="-2920.97" x2="3824.95" y2="-2918.72" gradientTransform="translate(4435.9 -3543.31) rotate(168.65)" xlink:href="#Dégradé_sans_nom_40"/><linearGradient id="Dégradé_sans_nom_40-3" x1="3324.2" y1="-4180.98" x2="3822.93" y2="-4179.58" gradientTransform="translate(4435.9 -3543.31) rotate(168.65)" xlink:href="#Dégradé_sans_nom_40"/></defs><rect class="cls-1" width="1918.59" height="2583.33"/><g class="cls-2"><path class="cls-3" d="M125.63,865.34a400.74,400.74,0,0,0,137-82.74,400.67,400.67,0,0,0,94.15-129.44,401.59,401.59,0,0,0,36-150.2,401.52,401.52,0,0,0-23-152.74,400.58,400.58,0,0,0-82.74-137A400.23,400.23,0,0,0,157.6,119.06a401.69,401.69,0,0,0-150.21-36C5,83,2.52,82.9.07,82.83,0,84,0,85.18,0,86.36V213.47a7.67,7.67,0,0,0,7.25,7.62,264.3,264.3,0,0,1,178.34,85.23c98.92,107.77,91.71,275.92-16.06,374.83A264,264,0,0,1,7.08,750.35,7.59,7.59,0,0,0,0,758V880.69a7.62,7.62,0,0,0,7.9,7.64A400.79,400.79,0,0,0,125.63,865.34Z" transform="translate(0 751.67)"/></g><g class="cls-2"><path class="cls-4" d="M1913.7-347.54h.06a7.71,7.71,0,0,0,6.24-7.54V-495.25a7.65,7.65,0,0,0-8.64-7.61q-14,1.92-27.9,4.71A446.92,446.92,0,0,0,1718.83-429a447.93,447.93,0,0,0-121.12,122.55,448.05,448.05,0,0,0-66.31,159.05,446.9,446.9,0,0,0-.21,178.55,446.73,446.73,0,0,0,69.12,164.63,448,448,0,0,0,122.56,121.12,447.8,447.8,0,0,0,159,66.3q14.68,3,29.45,5a7.65,7.65,0,0,0,8.64-7.61V240.33a7.69,7.69,0,0,0-6.22-7.52c-113.4-22.9-207.82-111.58-232-231.92C1649.67-159.11,1753.7-315.41,1913.7-347.54Z" transform="translate(0 751.67)"/></g><g class="cls-2"><path class="cls-5" d="M1916.09,1047.11h0a4.78,4.78,0,0,0,3.87-4.67v-87a4.75,4.75,0,0,0-5.37-4.72q-8.66,1.18-17.31,2.92a279.1,279.1,0,0,0-1,547q9.12,1.88,18.28,3.12a4.75,4.75,0,0,0,5.36-4.73v-87a4.77,4.77,0,0,0-3.86-4.67c-70.39-14.21-129-69.26-144-143.95C1752.21,1164.07,1816.78,1067.05,1916.09,1047.11Z" transform="translate(0 751.67)"/></g></svg>