<svg id="Calque_1" data-name="Calque 1" xmlns="http://www.w3.org/2000/svg" xmlns:xlink="http://www.w3.org/1999/xlink" viewBox="0 0 1920.42 1080.36"><defs><style>.cls-1{fill:url(#Dégradé_sans_nom_26);}.cls-2{opacity:0.5;}.cls-3{fill:url(#Dégradé_sans_nom_40);}.cls-4{fill:url(#Dégradé_sans_nom_40-2);}</style><linearGradient id="Dégradé_sans_nom_26" x1="960.21" y1="3.78" x2="960.21" y2="2025.47" gradientUnits="userSpaceOnUse"><stop offset="0" stop-color="#12b069"/><stop offset="0.06" stop-color="#12b069"/><stop offset="1" stop-color="#156084"/><stop offset="1" stop-color="#156084"/></linearGradient><linearGradient id="Dégradé_sans_nom_40" x1="-720.18" y1="324.6" x2="123.72" y2="326.96" gradientTransform="translate(760.55 499.25) rotate(-42.55)" gradientUnits="userSpaceOnUse"><stop offset="0" stop-color="#156084"/><stop offset="0.12" stop-color="#156084"/><stop offset="0.8" stop-color="#156084" stop-opacity="0.1"/><stop offset="0.98" stop-color="#156084"/></linearGradient><linearGradient id="Dégradé_sans_nom_40-2" x1="3146.42" y1="-3367.25" x2="3731.99" y2="-3365.61" gradientTransform="translate(4435.9 -3543.31) rotate(168.65)" xlink:href="#Dégradé_sans_nom_40"/></defs><rect class="cls-1" width="1920.42" height="1080.24"/><g class="cls-2"><path class="cls-3" d="M955.73,988.2A295.08,295.08,0,0,0,383,1074.77c-.07,1.79-.13,3.57-.18,5.36.86,0,1.72,0,2.58,0h93.07a5.62,5.62,0,0,0,5.59-5.3,193.51,193.51,0,0,1,62.4-130.59c78.91-72.43,202-67.16,274.46,11.76a193.33,193.33,0,0,1,50.67,119,5.56,5.56,0,0,0,5.57,5.18H967a5.58,5.58,0,0,0,5.6-5.78A292.93,292.93,0,0,0,955.73,988.2Z" transform="translate(0.21 0.18)"/></g><g class="cls-2"><path class="cls-4" d="M1915.62,185.9h.05a5.62,5.62,0,0,0,4.54-5.49V78.26a5.58,5.58,0,0,0-6.3-5.55q-10.17,1.4-20.33,3.43a327.7,327.7,0,0,0-1.12,642.28q10.69,2.19,21.45,3.66a5.58,5.58,0,0,0,6.3-5.55V614.31a5.61,5.61,0,0,0-4.53-5.48c-82.65-16.68-151.45-81.31-169.06-169C1723.2,323.22,1799,209.31,1915.62,185.9Z" transform="translate(0.21 0.18)"/></g></svg>